<svg xmlns="http://www.w3.org/2000/svg" width="20" height="18" viewBox="0 0 20 18">
    <g fill="none" fill-rule="evenodd">
        <g fill="#006838" fill-rule="nonzero">
            <g>
                <g>
                    <path d="M13.613.5v2.691l1.857 1.483V.5c0-.276-.224-.5-.5-.5h-.857c-.276 0-.5.224-.5.5zM8.915 1.512L.833 7.963C.4 8.308.33 8.937.675 9.37l.041.048.119.13c.355.392.953.439 1.365.109l7.08-5.672c.151-.12.366-.12.516 0l7.08 5.672c.413.33 1.01.283 1.366-.108l.118-.13c.372-.41.341-1.042-.068-1.414-.015-.014-.031-.028-.048-.04l-8.082-6.452c-.365-.29-.883-.29-1.247 0z" transform="translate(-74 -250) translate(74 250)"/>
                    <path d="M8.914 5.334L3.518 9.65c-.237.19-.375.478-.375.781v6.518c0 .553.448 1 1 1h10.79c.553 0 1-.447 1-1V10.43c0-.303-.137-.59-.375-.78l-5.395-4.316c-.365-.292-.884-.292-1.25 0z" transform="translate(-74 -250) translate(74 250)"/>
                </g>
            </g>
        </g>
    </g>
</svg>
