<svg xmlns="http://www.w3.org/2000/svg" width="24" height="22" viewBox="0 0 24 22">
    <g fill="none" fill-rule="evenodd">
        <g fill="#CECECE" fill-rule="nonzero">
            <g>
                <g>
                    <path d="M16.754.56v3.4l2.286 1.812V.56c0-.276-.224-.5-.5-.5h-1.286c-.276 0-.5.224-.5.5zM11.118 1.792L.841 9.938c-.433.343-.506.972-.163 1.405l.046.054.451.493c.355.388.95.435 1.36.108l8.887-7.07c.186-.147.45-.147.635 0l8.886 7.07c.412.327 1.006.28 1.36-.108l.452-.493c.373-.408.345-1.04-.063-1.413-.017-.016-.035-.031-.054-.046L12.361 1.792c-.364-.289-.879-.289-1.243 0z" transform="translate(-62 -673) translate(62 673)"/>
                    <path d="M11.118 6.462L4.246 11.92c-.239.19-.378.478-.378.783v8.293c0 .553.448 1 1 1h13.743c.552 0 1-.447 1-1v-8.293c0-.305-.14-.593-.378-.783l-6.871-5.458c-.365-.289-.88-.289-1.244 0z" transform="translate(-62 -673) translate(62 673)"/>
                </g>
            </g>
        </g>
    </g>
</svg>
