<svg xmlns="http://www.w3.org/2000/svg" width="18" height="18" viewBox="0 0 18 18">
    <g fill="none" fill-rule="evenodd">
        <g fill="#006838">
            <g>
                <path d="M8.715 2.895H7.057l-1.183-1.8c-.013 0-.025-.004-.034-.013-.009-.01-.014-.021-.014-.034C5.641.72 5.745.303 6.063.1c.327-.195.75-.09.947.237L8.668 2.8c0 .047.047.047.047.095zM11.936 1.095l-1.184 1.8H9.094c.047-.047.047-.047.047-.095L10.752.337 10.8.29c.11-.155.28-.258.467-.285.188-.027.38.025.528.143.153.1.255.261.282.442.027.18-.024.364-.14.505zM13.026 2.895H4.784C2.104 2.94-.035 5.142 0 7.821v5.115c-.035 2.68 2.104 4.883 4.784 4.927h8.62c.095 0 .142-.047.237-.047 2.397-.374 4.154-2.453 4.12-4.879V7.821c.036-1.284-.445-2.529-1.335-3.455-.89-.926-2.116-1.456-3.4-1.47zM5.589 7.632h6.632c.363.005.655.218.663.483-.005.271-.292.495-.663.517H5.637c-.373-.003-.681-.212-.71-.483-.014-.134.05-.266.175-.364.126-.098.302-.154.487-.153zm7.437 4.998H4.784c-.177.012-.352-.03-.486-.114-.135-.084-.215-.204-.224-.333 0-.278.283-.514.663-.551h8.238c.38.01.676.24.663.516.015.125-.042.248-.16.34-.116.091-.28.143-.452.142z" transform="translate(-163 -490) translate(163 490)"/>
            </g>
        </g>
    </g>
</svg>
