<svg xmlns="http://www.w3.org/2000/svg" width="22" height="22" viewBox="0 0 22 22">
    <g fill="none" fill-rule="evenodd">
        <g fill="#CECECE">
            <g>
                <path d="M10.652 3.539H8.626l-1.447-2.2c-.016 0-.03-.006-.041-.017-.011-.01-.017-.026-.017-.04-.226-.402-.1-.911.289-1.16.4-.238.918-.109 1.158.29l2.026 3.01c0 .058.058.058.058.117zM14.589 1.339l-1.447 2.2h-2.027c.058-.058.058-.058.058-.116l1.969-3.01.057-.058c.135-.19.34-.316.57-.349.23-.032.464.03.646.175.186.123.312.32.345.54.033.221-.03.445-.171.618zM15.92 3.539H5.847C2.572 3.592-.043 6.284 0 9.559v6.252c-.043 3.275 2.572 5.968 5.847 6.021h10.536c.116 0 .174-.057.29-.057 2.929-.457 5.076-2.999 5.036-5.963V9.56c.043-1.57-.545-3.09-1.633-4.223-1.089-1.132-2.586-1.78-4.156-1.797zm-9.089 6.789h8.105c.444.005.802.218.81.483-.005.271-.356.495-.81.517H6.89c-.455-.003-.832-.212-.868-.483-.017-.134.061-.266.215-.364.154-.098.37-.154.595-.153zm9.09 5.998H5.846c-.216.012-.43-.03-.594-.114-.164-.084-.263-.204-.274-.333 0-.278.346-.514.81-.551h10.07c.463.01.825.24.81.516.019.125-.052.248-.195.34-.142.091-.343.143-.554.142z" transform="translate(-158 -572) translate(158 572)"/>
            </g>
        </g>
    </g>
</svg>
